<svg aria-hidden="true" style="position: absolute; width: 0; height: 0; overflow: hidden;" version="1.1" xmlns="http://www.w3.org/2000/svg" xmlns:xlink="http://www.w3.org/1999/xlink">
<defs>

<symbol id="dashboard" viewBox="0 0 32 32">
<path d="M4 17.333h10.667v-13.333h-10.667v13.333zM4 28h10.667v-8h-10.667v8zM17.333 28h10.667v-13.333h-10.667v13.333zM17.333 4v8h10.667v-8h-10.667z"></path>
</symbol>

<symbol id="history" viewBox="0 0 32 32">
<path d="M17.333 4c-6.627 0-12 5.373-12 12h-4l5.187 5.187 0.093 0.187 5.387-5.373h-4c0-5.16 4.173-9.333 9.333-9.333s9.333 4.173 9.333 9.333c0 5.16-4.173 9.333-9.333 9.333-2.573 0-4.907-1.053-6.587-2.747l-1.893 1.893c2.173 2.173 5.16 3.52 8.48 3.52 6.627 0 12-5.373 12-12s-5.373-12-12-12zM16 10.667v6.667l5.707 3.387 0.96-1.613-4.667-2.773v-5.667h-2z"></path>
</symbol>

<symbol id="deposits" viewBox="0 0 32 32">
<path  d="M16 2.667c-7.36 0-13.333 5.973-13.333 13.333s5.973 13.333 13.333 13.333c7.36 0 13.333-5.973 13.333-13.333s-5.973-13.333-13.333-13.333zM17.88 24.12v2.547h-3.56v-2.573c-2.28-0.48-4.213-1.947-4.36-4.533h2.613c0.133 1.4 1.093 2.493 3.533 2.493 2.613 0 3.2-1.307 3.2-2.12 0-1.107-0.587-2.147-3.56-2.853-3.307-0.8-5.573-2.16-5.573-4.893 0-2.293 1.853-3.787 4.147-4.28v-2.573h3.56v2.6c2.48 0.6 3.72 2.48 3.8 4.52h-2.613c-0.067-1.48-0.853-2.493-2.96-2.493-2 0-3.2 0.907-3.2 2.187 0 1.12 0.867 1.853 3.56 2.547s5.573 1.853 5.573 5.213c-0.013 2.44-1.84 3.773-4.16 4.213z"></path>
</symbol>

<symbol id="withdrawals" viewBox="0 0 32 32">
<path d="M5.333 13.333v9.333h4v-9.333h-4zM13.333 13.333v9.333h4v-9.333h-4zM2.667 29.333h25.333v-4h-25.333v4zM21.333 13.333v9.333h4v-9.333h-4zM15.333 1.333l-12.667 6.667v2.667h25.333v-2.667l-12.667-6.667z"></path>
</symbol>

<symbol id="arrowLeft" viewBox="0 0 32 32">
<path fill="#fff" style="fill: var(--color2, #fff)" d="M23.56 5.16l-2.36-2.36-13.2 13.2 13.2 13.2 2.36-2.36-10.84-10.84 10.84-10.84z"></path>
</symbol>

<symbol id="arrowRight" viewBox="0 0 32 32">
<path fill="#fff" style="fill: var(--color2, #fff)" d="M8.44 5.16l2.36-2.36 13.2 13.2-13.2 13.2-2.36-2.36 10.84-10.84-10.84-10.84z"></path>
</symbol>


</defs>
</svg>
